<svg width="545" height="330" viewBox="0 0 545 330" fill="none" xmlns="http://www.w3.org/2000/svg">
<path d="M248.884 329.125C323.566 329.125 438.325 323.407 480.832 246.973C529.197 160.007 470.411 37.4525 293.922 53.9902C117.428 70.5335 59.8025 265.505 86.1976 305.2C93.5299 316.223 111.41 329.214 141.845 329.214C182.125 329.214 222.174 329.131 248.884 329.131V329.125Z" fill="#D6E1FB"/>
<path d="M494.015 0H336.401C333.654 0 331.428 2.22645 331.428 4.97292V127.876C331.428 130.622 333.654 132.849 336.401 132.849H494.015C496.761 132.849 498.988 130.622 498.988 127.876V4.97292C498.988 2.22645 496.761 0 494.015 0Z" fill="#2B244A"/>
<path d="M366.834 40.8551H432.626C433.339 40.8551 433.339 39.75 432.626 39.75H366.834C366.122 39.75 366.122 40.8551 366.834 40.8551Z" fill="#FF4F4F"/>
<path d="M405.613 53.0621H432.373C433.085 53.0621 433.085 51.957 432.373 51.957H405.613C404.9 51.957 404.9 53.0621 405.613 53.0621Z" fill="#9783F7"/>
<path d="M366.834 53.0621H397.468C398.18 53.0621 398.18 51.957 397.468 51.957H366.834C366.122 51.957 366.122 53.0621 366.834 53.0621Z" fill="#F7E5DA"/>
<path d="M401.938 65.2721H432.626C433.339 65.2721 433.339 64.167 432.626 64.167H401.938C401.225 64.167 401.225 65.2721 401.938 65.2721Z" fill="#FF4F4F"/>
<path d="M376.946 65.2721H390.036C390.748 65.2721 390.748 64.167 390.036 64.167H376.946C376.233 64.167 376.233 65.2721 376.946 65.2721Z" fill="#F7E5DA"/>
<path d="M401.169 77.4781H431.438C432.151 77.4781 432.151 76.373 431.438 76.373H401.169C400.457 76.373 400.457 77.4781 401.169 77.4781Z" fill="#9783F7"/>
<path d="M366.834 77.4781H382.98C383.693 77.4781 383.693 76.373 382.98 76.373H366.834C366.122 76.373 366.122 77.4781 366.834 77.4781Z" fill="#9783F7"/>
<path d="M359.635 40.3028C359.635 41.093 358.994 41.7395 358.198 41.7395C357.403 41.7395 356.762 41.0985 356.762 40.3028C356.762 39.5072 357.403 38.8662 358.198 38.8662C358.994 38.8662 359.635 39.5072 359.635 40.3028Z" fill="#F7E5DA"/>
<path d="M359.635 52.5089C359.635 53.299 358.994 53.9455 358.198 53.9455C357.403 53.9455 356.762 53.3046 356.762 52.5089C356.762 51.7132 357.403 51.0723 358.198 51.0723C358.994 51.0723 359.635 51.7132 359.635 52.5089Z" fill="#F7E5DA"/>
<path d="M359.635 64.7188C359.635 65.509 358.994 66.1555 358.198 66.1555C357.403 66.1555 356.762 65.5145 356.762 64.7188C356.762 63.9232 357.403 63.2822 358.198 63.2822C358.994 63.2822 359.635 63.9232 359.635 64.7188Z" fill="#F7E5DA"/>
<path d="M359.635 76.9259C359.635 77.716 358.994 78.3625 358.198 78.3625C357.403 78.3625 356.762 77.7216 356.762 76.9259C356.762 76.1302 357.403 75.4893 358.198 75.4893C358.994 75.4893 359.635 76.1302 359.635 76.9259Z" fill="#F7E5DA"/>
<path d="M449.015 21.0356V132.241C449.015 132.954 450.12 132.954 450.12 132.241V21.0356C450.12 20.3228 449.015 20.3228 449.015 21.0356Z" fill="#8D84B8"/>
<path d="M336.401 0H494.015C496.761 0 498.988 2.22676 498.988 4.97292V21.8422H331.428V4.97292C331.428 2.22676 333.654 0 336.401 0Z" fill="#6EA3FF"/>
<path d="M471.361 36.8053H487.042C487.755 36.8053 487.755 35.7002 487.042 35.7002H471.361C470.648 35.7002 470.648 36.8053 471.361 36.8053Z" fill="#9783F7"/>
<path d="M471.62 46.9225H487.041C487.754 46.9225 487.754 45.8174 487.041 45.8174H471.62C470.907 45.8174 470.907 46.9225 471.62 46.9225Z" fill="#F7E5DA"/>
<path d="M471.62 57.0406H487.041C487.754 57.0406 487.754 55.9355 487.041 55.9355H471.62C470.907 55.9355 470.907 57.0406 471.62 57.0406Z" fill="#F7E5DA"/>
<path d="M479.328 67.1578H487.036C487.748 67.1578 487.748 66.0527 487.036 66.0527H479.328C478.615 66.0527 478.615 67.1578 479.328 67.1578Z" fill="#9783F7"/>
<path d="M466.459 36.253C466.459 37.0432 465.818 37.6897 465.023 37.6897C464.227 37.6897 463.586 37.0487 463.586 36.253C463.586 35.4574 464.227 34.8164 465.023 34.8164C465.818 34.8164 466.459 35.4574 466.459 36.253Z" fill="#F7E5DA"/>
<path d="M466.459 46.3692C466.459 47.1594 465.818 47.8059 465.023 47.8059C464.227 47.8059 463.586 47.1649 463.586 46.3692C463.586 45.5736 464.227 44.9326 465.023 44.9326C465.818 44.9326 466.459 45.5736 466.459 46.3692Z" fill="#F7E5DA"/>
<path d="M466.459 56.4874C466.459 57.2775 465.818 57.924 465.023 57.924C464.227 57.924 463.586 57.2831 463.586 56.4874C463.586 55.6917 464.227 55.0508 465.023 55.0508C465.818 55.0508 466.459 55.6917 466.459 56.4874Z" fill="#F7E5DA"/>
<path d="M466.459 66.6036C466.459 67.3938 465.818 68.0402 465.023 68.0402C464.227 68.0402 463.586 67.3993 463.586 66.6036C463.586 65.8079 464.227 65.167 465.023 65.167C465.818 65.167 466.459 65.8079 466.459 66.6036Z" fill="#F7E5DA"/>
<path d="M485.815 15.7136C488.119 15.7136 489.987 13.8458 489.987 11.5418C489.987 9.23786 488.119 7.37012 485.815 7.37012C483.511 7.37012 481.644 9.23786 481.644 11.5418C481.644 13.8458 483.511 15.7136 485.815 15.7136Z" fill="white"/>
<path d="M475.835 11.5775C475.855 9.27362 474.003 7.38994 471.699 7.37024C469.395 7.35053 467.511 9.20227 467.492 11.5062C467.472 13.8101 469.324 15.6937 471.628 15.7134C473.932 15.7331 475.815 13.8814 475.835 11.5775Z" fill="white"/>
<path d="M376.102 106.576C376.102 106.576 375.245 85.6619 380.064 81.1255C384.882 76.5891 394.822 79.2855 399.629 85.4022C404.436 91.5245 376.102 106.576 376.102 106.576Z" fill="#FFA67D"/>
<path d="M356.503 242.777C379.672 242.363 390.38 230.124 398.033 203.602C405.686 177.08 411.686 114.703 411.686 114.703L376.058 101.038L349.724 175.03L356.498 242.777H356.503Z" fill="#FFA67D"/>
<path d="M63.1838 226.031C52.0002 244.044 41.6731 265.444 38.7225 286.568C35.4901 309.719 52.3981 329.561 75.9697 329.164C102.221 328.716 126.196 302.791 142.579 285.026C162.018 263.952 161.637 205.288 161.637 205.288L120.417 220.594L100.077 252.028L101.216 231.937L63.1838 226.031Z" fill="#FFA67D"/>
<path d="M78.1076 276.931C84.4785 270.234 90.8549 263.531 97.2258 256.834C99.0547 254.912 100.884 252.989 102.713 251.066C103.204 250.552 102.425 249.767 101.933 250.287C95.5626 256.984 89.1862 263.686 82.8154 270.383C80.9864 272.306 79.1575 274.229 77.3286 276.152C76.8368 276.665 77.6159 277.45 78.1076 276.931Z" fill="#2B244A"/>
<path d="M224.627 135.004C224.627 135.004 230.987 136.225 235.534 137.877C240.082 139.524 232.512 144.32 230.6 145.386C228.694 146.453 224.627 135.004 224.627 135.004Z" fill="#FFA67D"/>
<path d="M186.983 146.392C186.867 146.005 186.756 145.613 186.657 145.221C183.104 131.219 195.26 118.621 208.554 120.329C219.749 121.765 228.098 130.225 232.817 139.557C233.253 140.419 233.695 141.358 234.126 142.353C234.303 142.552 234.48 142.751 234.657 142.95C240.514 149.702 245.895 161.725 236.646 168.975C231.446 173.053 223.76 172.765 217.583 171.301C204.482 168.201 191.16 160.305 186.977 146.387L186.983 146.392Z" fill="#FFA67D"/>
<path d="M236.336 136.948C236.96 138.048 237.507 139.186 237.883 140.396C238.126 141.186 238.403 142.137 238.22 142.971C237.916 144.369 235.872 142.286 235.485 141.877C233.85 140.137 232.557 137.926 231.789 135.666C231.623 135.186 230.617 132.02 231.927 132.263C232.706 132.406 233.424 133.152 233.949 133.694C234.888 134.666 235.662 135.782 236.342 136.948C236.701 137.562 237.657 137.009 237.297 136.39C236.574 135.147 235.739 133.948 234.734 132.915C234.071 132.23 233.258 131.489 232.319 131.224C231.606 131.019 230.86 131.213 230.479 131.887C230.02 132.694 230.181 133.782 230.357 134.639C230.954 137.468 232.562 140.253 234.474 142.396C235.341 143.369 237.574 145.59 238.911 144.065C239.579 143.303 239.408 142.048 239.231 141.142C238.9 139.468 238.148 137.866 237.308 136.39C236.955 135.771 235.999 136.329 236.353 136.948H236.336Z" fill="white"/>
<path d="M425.201 95.6958C425.163 93.8282 425.03 91.9219 424.472 90.1261C423.958 88.4685 423.068 86.9876 421.919 85.6892C420.77 84.3907 419.411 83.2966 418.035 82.2523C417.012 81.4732 415.979 80.7052 414.94 79.9537C417.725 78.8707 420.261 77.8596 421.306 77.3899C423.798 76.2848 423.975 71.0411 421.052 69.6819C416.256 67.4496 403.624 71.5495 396.264 73.721C390.004 75.3842 385.766 81.6721 382.727 87.8054C378.174 97.0053 374.709 108.581 378.688 118.593C379.76 121.29 381.605 123.395 384.014 124.986C386.678 126.743 389.684 128.025 392.535 129.445C393.933 130.142 395.408 130.81 396.95 130.142C397.242 130.014 397.508 129.849 397.762 129.666C397.861 129.711 397.983 129.727 398.126 129.666C406.42 126.346 412.553 119.627 416.576 111.836C417.151 112.239 417.808 112.537 418.582 112.687C421.786 113.294 424.395 110.427 425.113 107.559C425.599 105.603 425.245 97.6629 425.201 95.6958Z" fill="#FFA67D"/>
<path d="M381.235 91.143C383.086 87.0542 385.501 83.2471 388.424 79.8434C388.888 79.3075 388.109 78.5228 387.645 79.0643C384.655 82.5399 382.169 86.4132 380.285 90.585C379.992 91.2259 380.948 91.7895 381.24 91.143H381.235Z" fill="#2B244A"/>
<path d="M408.962 83.0318C410.973 82.1532 413.073 81.4901 415.222 81.0426C415.918 80.8989 415.625 79.8325 414.929 79.9762C412.686 80.4458 410.503 81.1586 408.404 82.0758C408.133 82.1974 408.067 82.5952 408.205 82.8328C408.371 83.1146 408.685 83.1533 408.962 83.0318Z" fill="#2B244A"/>
<path d="M414.62 87.7886C416.631 86.91 418.731 86.247 420.88 85.7994C421.577 85.6558 421.284 84.5893 420.587 84.733C418.344 85.2027 416.162 85.9154 414.062 86.8327C413.791 86.9542 413.725 87.3521 413.863 87.5897C414.029 87.8715 414.344 87.9101 414.62 87.7886Z" fill="#2B244A"/>
<path d="M106.47 203.458C105.315 201.679 102.934 201.867 101.049 201.867H93.0043C87.628 201.856 82.2462 201.811 76.8699 201.861C74.3282 201.883 71.7865 201.983 69.2669 202.32C67.1893 202.596 64.8023 202.911 63.0729 204.171C61.2605 205.491 61.1224 207.541 61.4097 209.564C61.6694 211.381 61.9954 213.194 62.349 214.995C61.7136 215.316 61.2218 215.84 60.6693 216.332C58.4259 218.305 62.8795 231.168 65.1228 236.218C67.543 241.667 69.173 246.12 71.4605 251.629C71.5489 251.844 71.7423 252.054 72.0075 252.032C77.1573 251.634 82.2794 250.889 87.3186 249.783C89.794 249.236 92.2584 248.629 94.6785 247.888C96.6677 247.28 99.9996 246.844 100.48 244.799C105.409 223.792 105.879 211.47 106.475 208.923C106.879 207.204 107.514 205.082 106.464 203.458H106.47Z" fill="#FFA67D"/>
<path d="M0.0279912 147.75C1.92323 158.608 12.1011 214.664 14.024 225.24C14.2008 226.201 15.1015 226.853 16.074 226.715L153.846 207.415C154.868 207.271 155.57 206.304 155.388 205.287L141.115 125.008C140.939 124.03 140.01 123.367 139.027 123.527L1.53644 145.634C0.530809 145.794 -0.148824 146.745 0.0279912 147.745V147.75Z" fill="#2B244A"/>
<path d="M135.28 124.13L131.755 122.45C92.1373 114.654 68.9635 132.518 68.9635 132.518C37.1533 125.252 15.72 135.043 7.37105 140.076L3.91211 145.254L18.1899 224.5C50.6907 204.896 84.269 215.317 84.269 215.317C116.77 195.712 150.403 205.957 150.403 205.957L135.28 124.124V124.13Z" fill="#F7E5DA"/>
<path d="M18.8475 149.878C29.2796 145.994 40.3637 143.756 51.5307 144.314C54.8294 144.48 58.106 144.889 61.3494 145.53C62.0456 145.668 62.344 144.602 61.6423 144.463C50.3648 142.231 38.7668 142.949 27.6883 145.889C24.5995 146.712 21.555 147.696 18.5547 148.812C17.8916 149.061 18.1789 150.127 18.8475 149.878Z" fill="#2B244A"/>
<path d="M20.5057 159.299C30.9378 155.415 42.0219 153.177 53.1889 153.735C56.4876 153.901 59.7642 154.31 63.0076 154.951C63.7038 155.089 64.0022 154.023 63.3005 153.884C52.023 151.652 40.425 152.37 29.3465 155.31C26.2577 156.133 23.2132 157.117 20.2129 158.233C19.5498 158.476 19.8371 159.548 20.5057 159.299Z" fill="#2B244A"/>
<path d="M22.1629 168.715C32.595 164.831 43.6791 162.593 54.8461 163.151C58.1448 163.317 61.4214 163.726 64.6648 164.367C65.3611 164.505 65.6594 163.439 64.9577 163.3C53.6802 161.068 42.0823 161.786 31.0037 164.726C27.915 165.549 24.8704 166.533 21.8701 167.649C21.207 167.892 21.4944 168.964 22.1629 168.715Z" fill="#2B244A"/>
<path d="M23.8202 178.13C34.2523 174.246 45.3363 172.008 56.5033 172.566C59.802 172.732 63.0786 173.141 66.3221 173.782C67.0183 173.92 67.3167 172.854 66.6149 172.715C55.3374 170.483 43.7395 171.201 32.6609 174.141C29.5722 174.964 26.5276 175.948 23.5273 177.064C22.8643 177.307 23.1516 178.379 23.8202 178.13Z" fill="#2B244A"/>
<path d="M25.4833 187.551C35.9153 183.667 46.9994 181.429 58.1664 181.987C61.4651 182.153 64.7417 182.562 67.9852 183.203C68.6814 183.341 68.9798 182.274 68.278 182.136C57.0005 179.904 45.4026 180.622 34.324 183.562C31.2353 184.385 28.1907 185.369 25.1904 186.485C24.5273 186.728 24.8147 187.8 25.4833 187.551Z" fill="#2B244A"/>
<path d="M27.1415 196.967C37.5735 193.083 48.6576 190.845 59.8246 191.403C63.1233 191.569 66.3999 191.978 69.6434 192.619C70.3396 192.757 70.638 191.69 69.9362 191.552C58.6587 189.32 47.0608 190.038 35.9822 192.978C32.8935 193.801 29.8489 194.785 26.8486 195.901C26.1855 196.15 26.4729 197.216 27.1415 196.967Z" fill="#2B244A"/>
<path d="M82.3358 140.462C92.7679 136.578 103.852 134.34 115.019 134.898C118.318 135.064 121.594 135.473 124.838 136.114C125.534 136.252 125.832 135.186 125.131 135.047C113.853 132.815 102.255 133.533 91.1765 136.473C88.0878 137.296 85.0433 138.28 82.0429 139.396C81.3799 139.639 81.6672 140.711 82.3358 140.462Z" fill="#2B244A"/>
<path d="M83.993 149.878C94.4251 145.994 105.509 143.756 116.676 144.314C119.975 144.48 123.251 144.889 126.495 145.53C127.191 145.668 127.49 144.602 126.788 144.463C115.51 142.231 103.912 142.949 92.8338 145.889C89.745 146.712 86.7005 147.696 83.7002 148.812C83.0371 149.055 83.3244 150.127 83.993 149.878Z" fill="#2B244A"/>
<path d="M85.6502 159.299C96.0823 155.415 107.166 153.177 118.333 153.735C121.632 153.901 124.909 154.31 128.152 154.951C128.848 155.089 129.147 154.023 128.445 153.884C117.168 151.652 105.57 152.37 94.491 155.31C91.4023 156.133 88.3577 157.117 85.3574 158.233C84.6943 158.476 84.9817 159.548 85.6502 159.299Z" fill="#2B244A"/>
<path d="M87.3075 168.715C97.7396 164.831 108.824 162.593 119.991 163.151C123.289 163.317 126.566 163.726 129.809 164.367C130.506 164.505 130.804 163.439 130.102 163.3C118.825 161.068 107.227 161.786 96.1482 164.726C93.0595 165.549 90.015 166.533 87.0146 167.649C86.3516 167.898 86.6389 168.964 87.3075 168.715Z" fill="#2B244A"/>
<path d="M88.9706 178.136C99.4026 174.252 110.487 172.014 121.654 172.572C124.952 172.738 128.229 173.147 131.472 173.788C132.169 173.926 132.467 172.859 131.765 172.721C120.488 170.489 108.89 171.207 97.8113 174.147C94.7226 174.97 91.678 175.954 88.6777 177.07C88.0147 177.318 88.302 178.385 88.9706 178.136Z" fill="#2B244A"/>
<path d="M90.6288 187.551C101.061 183.667 112.145 181.429 123.312 181.987C126.611 182.153 129.887 182.562 133.131 183.203C133.827 183.341 134.125 182.274 133.424 182.136C122.146 179.904 110.548 180.622 99.4695 183.562C96.3808 184.385 93.3362 185.369 90.3359 186.485C89.6729 186.734 89.9602 187.8 90.6288 187.551Z" fill="#2B244A"/>
<path d="M22.064 216.356C32.2916 211.107 43.5691 208.107 55.0289 207.35C62.643 206.847 70.3621 207.261 77.8602 208.709C79.457 209.018 81.0483 209.361 82.6121 209.808C82.7115 209.836 82.811 209.88 82.9104 209.897C83.1315 209.93 83.2696 209.886 83.4685 209.775C84.1758 209.394 84.8554 208.957 85.5516 208.565C88.2425 207.051 91.0218 205.692 93.8674 204.493C103.465 200.459 113.798 198.315 124.191 197.945C131.032 197.702 137.928 198.177 144.647 199.503C145.144 199.603 145.636 199.702 146.127 199.813C146.818 199.962 147.116 198.901 146.42 198.746C140.547 197.459 134.507 196.857 128.496 196.79C119.008 196.691 109.477 198.017 100.426 200.907C94.2598 202.874 88.3364 205.565 82.7889 208.897C82.9325 208.88 83.0707 208.858 83.2143 208.841C79.2415 207.609 75.009 207.012 70.8925 206.576C61.1346 205.537 51.1887 206.034 41.602 208.156C34.6178 209.703 27.8547 212.146 21.4948 215.411C20.8594 215.737 21.423 216.688 22.0529 216.367L22.064 216.356Z" fill="#2B244A"/>
<path d="M68.4334 133.015C70.4226 143.674 72.4117 154.333 74.4009 164.986C76.4011 175.688 78.3958 186.391 80.396 197.094C81.5177 203.1 82.6394 209.106 83.7611 215.113C83.8937 215.809 84.9546 215.516 84.8275 214.82C82.8383 204.161 80.8491 193.503 78.86 182.849C76.8597 172.147 74.865 161.444 72.8648 150.741C71.7432 144.735 70.6215 138.729 69.4998 132.722C69.3672 132.026 68.3063 132.319 68.4334 133.015Z" fill="#2B244A"/>
<path d="M7.06133 140.878C8.89026 150.68 10.7192 160.487 12.5536 170.29C14.3826 180.092 16.2115 189.9 18.046 199.702C19.0737 205.216 20.1014 210.725 21.1347 216.239C21.2673 216.936 22.3282 216.643 22.2011 215.947C20.3722 206.144 18.5433 196.337 16.7088 186.535C14.8799 176.732 13.0509 166.925 11.2165 157.122C10.1887 151.608 9.16101 146.099 8.12774 140.585C7.99513 139.889 6.93424 140.181 7.06133 140.878Z" fill="#2B244A"/>
<path d="M131.38 123.313C133.203 133.071 135.021 142.829 136.844 152.587C138.662 162.317 140.475 172.048 142.292 181.773C143.32 187.265 144.342 192.763 145.37 198.255C145.503 198.951 146.564 198.658 146.437 197.962C144.613 188.204 142.795 178.446 140.972 168.688C139.154 158.958 137.342 149.228 135.524 139.503C134.496 134.01 133.474 128.513 132.446 123.02C132.313 122.324 131.253 122.617 131.38 123.313Z" fill="#2B244A"/>
<path d="M19.0353 224.882C20.0906 221.931 21.1405 218.981 22.1958 216.025C22.4334 215.356 21.367 215.063 21.1294 215.732C20.0741 218.682 19.0242 221.633 17.9689 224.589C17.7313 225.258 18.7977 225.551 19.0353 224.882Z" fill="#2B244A"/>
<path d="M74.8488 237.308C76.0036 236.303 76.4401 234.794 76.418 233.081C76.3959 231.258 76.0976 229.39 75.8434 227.583C75.3185 223.859 74.5725 220.163 73.5669 216.549C72.6055 213.079 71.517 209.294 69.6383 206.299C68.0856 203.824 65.6986 201.912 63.0906 202.183C61.8198 202.315 60.687 202.99 59.93 204.183C59.0736 205.542 58.8084 207.288 58.7365 208.996C58.6537 211.062 58.8028 213.173 58.9631 215.245C59.1233 217.323 59.3609 219.395 59.6703 221.456C60.1124 224.417 60.4052 227.484 61.2672 230.363C62.7812 235.446 66.323 239.203 70.9644 238.761C72.3237 238.634 73.7603 238.259 74.8488 237.303V237.308Z" fill="#FFA67D"/>
<path d="M148.26 329.169C148.26 329.169 159.355 293.402 187.22 276.539C215.079 259.675 244.668 258.277 248.569 329.169H148.26Z" fill="#2B244A"/>
<path d="M361.996 212.564C358.781 199.822 355.04 186.959 349.758 174.836C336.695 174.853 328.396 174.935 315.339 175.167C291.276 175.593 267.218 176.51 243.221 178.416C231.231 179.367 219.263 180.566 207.333 182.074C196.426 183.45 185.496 184.953 174.788 187.484C164.4 189.932 154.184 193.413 144.884 198.711C136.707 203.369 129.352 209.376 122.832 216.15C111.593 227.82 102.791 241.528 94.7461 255.552C94.7461 255.552 96.3485 274.499 106.548 294.904C110.295 302.391 113.627 308.232 116.345 312.625C119.964 318.476 128.059 319.476 132.993 314.686C137.403 310.403 143.133 304.801 149.575 298.419C147.89 307.381 150.785 311.083 154.874 311.26C168.931 311.884 240.674 311.829 248.581 308.652C258.952 304.486 261.09 296.507 262.317 292.457C263.621 288.141 267.892 274.3 269.141 270.194C306.267 268.045 335.905 266.387 355.918 264.702C364.5 263.978 370.671 256.143 369.351 247.64C367.522 235.854 364.936 224.173 362.008 212.58L361.996 212.564Z" fill="#09BC1B"/>
<path d="M158.781 242.436C155.266 256.764 152.725 271.329 150.647 285.927C150.078 289.933 149.542 293.945 149.039 297.956C148.951 298.658 150.056 298.652 150.144 297.956C151.962 283.452 154.167 268.981 157.145 254.67C157.974 250.675 158.875 246.691 159.847 242.729C160.018 242.038 158.952 241.746 158.781 242.436Z" fill="#2B244A"/>
<path d="M277.595 246.508C274.749 254.254 271.898 262.007 269.052 269.753C268.809 270.422 269.876 270.709 270.119 270.046C272.964 262.3 275.816 254.547 278.661 246.801C278.904 246.132 277.838 245.845 277.595 246.508Z" fill="#2B244A"/>
<path d="M103.066 242.578C104.144 252.789 106.31 262.879 109.614 272.604C112.869 282.201 117.206 291.434 122.555 300.043C125.605 304.955 128.986 309.657 132.661 314.128C133.114 314.68 133.893 313.89 133.44 313.348C127.014 305.524 121.521 296.954 117.079 287.859C112.67 278.831 109.31 269.305 107.028 259.519C105.724 253.939 104.774 248.275 104.177 242.578C104.105 241.876 102.995 241.871 103.072 242.578H103.066Z" fill="#2B244A"/>
<path d="M334.909 175.517C338.711 186.701 342.065 198.033 344.955 209.493C347.85 220.981 350.276 232.584 352.221 244.271C353.32 250.868 354.265 257.488 355.061 264.124C355.144 264.82 356.249 264.831 356.166 264.124C354.762 252.36 352.884 240.651 350.53 229.037C348.165 217.378 345.325 205.819 342.015 194.392C340.153 187.955 338.136 181.562 335.976 175.219C335.749 174.55 334.683 174.838 334.909 175.512V175.517Z" fill="#2B244A"/>
<path d="M222.538 140.363C223.953 140.573 225.053 138.91 225.677 137.899C226.246 136.976 226.622 136.313 227.346 135.456C228.009 134.672 228.683 134.064 229.086 133.147C229.583 132.008 228.003 130.18 226.92 129.793C224.135 128.798 221.223 132.495 220.527 135.788C220.339 136.689 220.395 137.595 220.671 138.412C220.958 139.252 221.522 140.208 222.544 140.357L222.538 140.363Z" fill="#2B244A"/>
<path d="M240.761 168.007C236.479 157.277 227.118 150.497 218.421 142.955C219.327 137.115 219.162 124.423 217.244 122.135C213.957 118.212 197.17 110.228 179.909 129.677C168.145 142.933 172.748 157.012 179.594 164.493C181.014 171.196 181.379 175.185 180.041 177.611C175.251 186.313 164.581 188.695 154.337 194.027C160.078 200.807 166.708 206.608 171.621 210.498C192.54 227.075 227.118 225.03 239.512 199.072C244.043 189.579 244.678 177.826 240.761 168.002V168.007Z" fill="#2B244A"/>
<path d="M223.598 159.901C228.007 172.439 227.129 186.622 221.465 198.624C219.857 202.033 217.868 205.265 215.52 208.216C215.083 208.769 215.857 209.553 216.299 208.995C224.797 198.303 228.698 184.235 227.173 170.681C226.748 166.908 225.913 163.189 224.653 159.608C224.421 158.94 223.349 159.227 223.587 159.901H223.598Z" fill="#8D84B8"/>
<path d="M232.468 164.843C234.905 171.224 235.187 178.281 233.231 184.828C233.026 185.513 234.093 185.801 234.297 185.121C236.303 178.402 236.038 171.097 233.535 164.55C233.286 163.892 232.214 164.18 232.468 164.843Z" fill="#8D84B8"/>
<path d="M179.649 165.316C183.848 169.427 189.589 171.764 195.463 171.748C196.176 171.748 196.176 170.643 195.463 170.643C189.877 170.659 184.423 168.444 180.428 164.532C179.92 164.034 179.135 164.813 179.649 165.311V165.316Z" fill="#8D84B8"/>
<path d="M228.804 153.267C230.927 151.144 230.346 147.12 227.507 144.281C224.667 141.441 220.644 140.86 218.52 142.984C216.397 145.107 216.978 149.13 219.818 151.97C222.657 154.81 226.681 155.39 228.804 153.267Z" fill="#FFA67D"/>
<path d="M219.792 146.017C220.566 148.669 222.688 150.824 225.329 151.636C226.008 151.846 226.301 150.78 225.622 150.57C223.351 149.868 221.522 148 220.859 145.724C220.66 145.044 219.593 145.331 219.792 146.017Z" fill="#2B244A"/>
<path d="M235.314 149.702C236.353 149.431 237.309 148.906 238.104 148.193C238.32 148 238.314 147.608 238.104 147.414C237.872 147.204 237.552 147.21 237.325 147.414C237.242 147.492 237.154 147.563 237.065 147.635C237.043 147.652 237.021 147.674 236.999 147.69C237.099 147.624 237.016 147.679 236.994 147.69C236.949 147.724 236.9 147.757 236.855 147.79C236.662 147.923 236.463 148.05 236.253 148.16C236.154 148.215 236.049 148.265 235.944 148.315C235.9 148.337 235.839 148.376 235.789 148.387C235.828 148.381 235.866 148.354 235.8 148.381C235.773 148.392 235.745 148.403 235.723 148.414C235.496 148.503 235.264 148.575 235.027 148.635C234.745 148.707 234.551 149.033 234.64 149.315C234.734 149.602 235.021 149.779 235.319 149.702H235.314Z" fill="#2B244A"/>
<path d="M232.097 142.972C232.616 142.723 233.064 142.099 232.716 140.878C232.213 139.11 230.262 136.612 228.754 137.734C227.135 138.938 230.18 143.884 232.097 142.977V142.972Z" fill="#2B244A"/>
<path d="M416.941 99.2757C417.145 103.32 416.941 107.37 416.317 111.371C416.206 112.067 417.273 112.366 417.383 111.664C418.024 107.564 418.256 103.42 418.046 99.2757C418.013 98.5684 416.902 98.5629 416.941 99.2757Z" fill="#2B244A"/>
<path d="M74.4661 219.351C80.7928 219.069 87.031 223.036 89.3738 228.943C89.6335 229.595 90.6999 229.313 90.4402 228.65C87.9206 222.29 81.3232 217.942 74.4661 218.245C73.7589 218.279 73.7533 219.384 74.4661 219.351Z" fill="#2B244A"/>
<path d="M218.82 143.276C224.23 140.303 229.639 137.325 235.054 134.352C235.679 134.01 235.12 133.054 234.496 133.396C229.087 136.369 223.677 139.347 218.262 142.32C217.638 142.662 218.196 143.618 218.82 143.276Z" fill="white"/>
<path d="M337.657 29.6504H234.602C233.076 29.6504 231.839 30.8873 231.839 32.4131V104.614C231.839 106.14 233.076 107.377 234.602 107.377H337.657C339.183 107.377 340.42 106.14 340.42 104.614V32.4131C340.42 30.8873 339.183 29.6504 337.657 29.6504Z" fill="#2B244A"/>
<path d="M268.882 56.9684H313.185C313.898 56.9684 313.898 55.8633 313.185 55.8633H268.882C268.169 55.8633 268.169 56.9684 268.882 56.9684Z" fill="#FF4F4F"/>
<path d="M305.107 68.3736H312.953C313.666 68.3736 313.666 67.2686 312.953 67.2686H305.107C304.394 67.2686 304.394 68.3736 305.107 68.3736Z" fill="#9783F7"/>
<path d="M268.882 68.3736H297.499C298.211 68.3736 298.211 67.2686 297.499 67.2686H268.882C268.169 67.2686 268.169 68.3736 268.882 68.3736Z" fill="#9783F7"/>
<path d="M284.57 79.777H313.186C313.899 79.777 313.899 78.6719 313.186 78.6719H284.57C283.857 78.6719 283.857 79.777 284.57 79.777Z" fill="#9783F7"/>
<path d="M286.703 91.1822H313.192C313.904 91.1822 313.904 90.0771 313.192 90.0771H286.703C285.99 90.0771 285.99 91.1822 286.703 91.1822Z" fill="#F7E5DA"/>
<path d="M268.882 91.1822H279.287C280 91.1822 280 90.0771 279.287 90.0771H268.882C268.169 90.0771 268.169 91.1822 268.882 91.1822Z" fill="#FF4F4F"/>
<path d="M262.158 56.4159C262.158 57.1563 261.556 57.7586 260.815 57.7586C260.075 57.7586 259.473 57.1563 259.473 56.4159C259.473 55.6755 260.075 55.0732 260.815 55.0732C261.556 55.0732 262.158 55.6755 262.158 56.4159Z" fill="#F7E5DA"/>
<path d="M260.815 69.1629C261.557 69.1629 262.158 68.5618 262.158 67.8202C262.158 67.0787 261.557 66.4775 260.815 66.4775C260.074 66.4775 259.473 67.0787 259.473 67.8202C259.473 68.5618 260.074 69.1629 260.815 69.1629Z" fill="#F7E5DA"/>
<path d="M260.815 80.5682C261.557 80.5682 262.158 79.9671 262.158 79.2255C262.158 78.484 261.557 77.8828 260.815 77.8828C260.074 77.8828 259.473 78.484 259.473 79.2255C259.473 79.9671 260.074 80.5682 260.815 80.5682Z" fill="#F7E5DA"/>
<path d="M260.815 91.9715C261.557 91.9715 262.158 91.3704 262.158 90.6288C262.158 89.8873 261.557 89.2861 260.815 89.2861C260.074 89.2861 259.473 89.8873 259.473 90.6288C259.473 91.3704 260.074 91.9715 260.815 91.9715Z" fill="#F7E5DA"/>
<path d="M340.321 42.9828V102.194C340.321 102.995 340.349 103.802 340.321 104.603C340.294 105.426 339.89 106.172 339.15 106.57C338.631 106.846 338.089 106.83 337.52 106.83H331.928C331.215 106.83 331.215 107.935 331.928 107.935H335.564C336.741 107.935 338.216 108.145 339.338 107.697C340.653 107.172 341.415 105.912 341.432 104.526C341.432 104.205 341.432 103.885 341.432 103.559V52.6635C341.432 49.4918 341.542 46.2926 341.432 43.121C341.432 43.0768 341.432 43.027 341.432 42.9828C341.432 42.27 340.327 42.27 340.327 42.9828H340.321Z" fill="#8D84B8"/>
<path d="M234.602 29.6504H337.657C339.182 29.6504 340.42 30.8881 340.42 32.4131V42.4308H231.839V32.4131C231.839 30.8881 233.077 29.6504 234.602 29.6504Z" fill="#6EA3FF"/>
<path d="M335.491 36.043C335.491 37.6731 334.165 38.9992 332.535 38.9992C330.905 38.9992 329.579 37.6731 329.579 36.043C329.579 34.413 330.905 33.0869 332.535 33.0869C334.165 33.0869 335.491 34.413 335.491 36.043Z" fill="white"/>
<path d="M542.038 110.631H466.356C464.83 110.631 463.593 111.868 463.593 113.394V170.748C463.593 172.274 464.83 173.511 466.356 173.511H542.038C543.564 173.511 544.801 172.274 544.801 170.748V113.394C544.801 111.868 543.564 110.631 542.038 110.631Z" fill="#2B244A"/>
<path d="M463.04 121.543V132.318C463.04 133.031 464.145 133.031 464.145 132.318V121.543C464.145 120.831 463.04 120.831 463.04 121.543Z" fill="#8D84B8"/>
<path d="M466.356 110.631H542.038C543.563 110.631 544.801 111.869 544.801 113.394V120.969H463.593V113.394C463.593 111.869 464.83 110.631 466.356 110.631Z" fill="#6EA3FF"/>
<path d="M537.248 118.582C538.786 118.582 540.033 117.336 540.033 115.798C540.033 114.26 538.786 113.013 537.248 113.013C535.71 113.013 534.463 114.26 534.463 115.798C534.463 117.336 535.71 118.582 537.248 118.582Z" fill="white"/>
<path d="M479.837 146.718C483.91 149.127 487.982 151.536 492.054 153.951C492.667 154.316 493.225 153.36 492.612 152.995C488.54 150.586 484.468 148.177 480.395 145.762C479.782 145.397 479.224 146.353 479.837 146.718Z" fill="#F7E5DA"/>
<path d="M492.054 138.534C487.982 140.943 483.91 143.352 479.837 145.767C479.224 146.131 479.782 147.082 480.395 146.723C484.468 144.313 488.54 141.904 492.612 139.49C493.225 139.125 492.667 138.175 492.054 138.534Z" fill="#F7E5DA"/>
<path d="M527.997 145.768C523.925 148.177 519.853 150.586 515.781 153.001C515.167 153.36 515.725 154.316 516.339 153.957C520.411 151.548 524.483 149.139 528.555 146.724C529.169 146.359 528.611 145.409 527.997 145.768Z" fill="#F7E5DA"/>
<path d="M515.781 139.491C519.853 141.9 523.925 144.309 527.997 146.723C528.611 147.088 529.169 146.132 528.555 145.767C524.483 143.358 520.411 140.949 516.339 138.535C515.725 138.17 515.167 139.126 515.781 139.491Z" fill="#F7E5DA"/>
<path d="M497.574 159.051C502.304 150.696 507.034 142.347 511.764 133.993C512.117 133.374 511.161 132.816 510.808 133.435C506.078 141.789 501.348 150.138 496.618 158.493C496.265 159.111 497.22 159.669 497.574 159.051Z" fill="#F7E5DA"/>
<path d="M177.307 129.6C175.063 126.959 171.599 125.517 168.189 125.285C157.807 124.572 147.055 135.524 151.409 145.961C153.934 152.017 160.796 155.681 167.322 154.305C177.03 152.26 184.252 137.784 177.307 129.606V129.6Z" fill="#2B244A"/>
<path d="M146.718 197.685C146.718 197.685 146.265 185.374 163.377 182.639C180.374 179.921 180.799 171.837 180.799 171.837C180.799 171.837 186.855 182.031 183.285 187.021C179.716 192.01 154.338 194.033 154.338 194.033C154.338 194.033 150.293 195.652 146.718 197.685Z" fill="#2B244A"/>
<path d="M174.052 151.791C176.887 149.238 179.091 145.984 180.014 142.254C180.881 138.751 180.566 135.077 179.312 131.706C179.069 131.043 177.997 131.33 178.246 131.999C179.434 135.187 179.771 138.64 178.948 141.961C178.063 145.52 175.975 148.581 173.267 151.012C172.737 151.487 173.522 152.266 174.046 151.791H174.052Z" fill="#8D84B8"/>
</svg>
