<svg width="559" height="201" viewBox="0 0 559 201" fill="none" xmlns="http://www.w3.org/2000/svg">
<mask id="mask0_2253_10946" style="mask-type:alpha" maskUnits="userSpaceOnUse" x="0" y="0" width="559" height="201">
<rect width="559" height="200.935" rx="10" transform="matrix(-1 -8.74228e-08 -8.74228e-08 1 559 0)" fill="#D9D9D9"/>
</mask>
<g mask="url(#mask0_2253_10946)">
<path d="M590 200.993C582.75 193.774 575.715 186.769 568.679 179.757C529.531 140.743 490.347 101.756 451.263 62.6841C438.602 50.0243 423.766 41.2631 406.382 36.8932C394.909 34.0085 383.279 33.273 371.513 34.7225C349.112 37.493 330.153 47.061 314.343 63.0697C305.025 72.5093 295.578 81.8274 286.152 91.1599C285.322 91.981 285 92.8022 285 93.9589C285.029 129.011 285.021 164.063 285.021 199.108V201L590 201V200.993Z" fill="#09287A"/>
<path d="M56.9997 212.93C65.15 204.763 73.059 196.838 80.9679 188.905C124.978 144.765 169.028 100.657 212.965 56.4522C227.198 42.1293 243.877 32.2171 263.42 27.2732C276.317 24.0095 289.391 23.1774 302.618 24.8174C327.801 27.9518 349.114 38.7767 366.887 56.8884C377.363 67.568 387.983 78.1103 398.579 88.6687C450.988 140.891 568.446 249.475 514 205C513.968 244.657 461.794 210.797 399.85 210.797V212.938L56.9997 212.938V212.93Z" fill="#3A6FFF"/>
</g>
</svg>
