<svg width="150" height="88" viewBox="0 0 150 88" fill="none" xmlns="http://www.w3.org/2000/svg">
<g clip-path="url(#clip0_5813_19582)">
<path d="M85.4277 2.02222L89.5376 7.1431L90.2848 8.06617L90.8563 8.76947C90.2848 9.42881 89.8233 10.242 89.4057 11.0552L73.9771 50.3079C73.1639 51.9563 71.6475 52.9673 69.9991 52.9892H68.8563C66.8123 52.9892 65.2299 52.0002 63.8453 50.264L60.4387 46.0002L59.6035 44.9453C59.9771 44.4398 60.2848 43.8464 60.5925 43.275L76.3288 3.3409C77.1859 1.58266 78.8343 0.329909 80.5486 0.0222168H81.5815C81.5815 0.0222168 83.7134 0.241997 85.4277 2.02222Z" fill="#DCDCDC"/>
<path d="M105.23 2.72552C103.846 1.01123 101.89 0.000244141 99.8458 0.000244141H82.4612C82.1754 0.000244141 81.8677 0.000244141 81.582 0.000244141C83.0106 0.198046 84.571 1.01123 85.4282 2.00024L89.5381 7.12112L90.2853 8.0442L90.8568 8.7475L105.055 26.4838L89.5381 46.0002L88.8568 46.8794L85.2963 51.275C84.4612 52.3079 83.2963 52.9453 82.0656 52.9453H101.274C102.505 52.9453 103.692 52.3519 104.527 51.297L124.285 26.4398L105.23 2.72552Z" fill="white"/>
<path d="M63.8242 50.264L60.4176 46.0002L59.5825 44.9453L47.1209 29.275L44.9451 26.5277L64.0001 2.72552L64.8572 1.67057C65.6924 0.637607 66.8572 0.000244141 68.088 0.000244141H48.8792C47.6484 0.000244141 46.4836 0.593651 45.6484 1.62662L25.7363 26.4618L44.6154 50.22C46.0001 51.9563 47.9561 52.9453 50.022 52.9453H68.8352C66.7913 52.9453 65.2089 51.9783 63.8242 50.22V50.264Z" fill="white"/>
<path fill-rule="evenodd" clip-rule="evenodd" d="M74.2412 69.0992C73.5379 69.0992 72.9226 69.231 72.439 69.5167C71.9555 69.8024 71.5599 70.1321 71.2962 70.5277C71.0105 70.9233 70.8127 71.275 70.7028 71.6266L70.527 72.198V68.9893H66.1094V84.286H70.6368V76.0442C70.6368 75.3849 70.7467 74.8134 70.9885 74.3299C71.2083 73.8464 71.5819 73.4508 72.0654 73.1871C72.5489 72.9233 73.1863 72.7695 73.9336 72.7695C74.2632 72.7695 74.5709 72.7695 74.8786 72.8134C75.1643 72.8354 75.4061 72.8794 75.5599 72.9453V69.209C75.4061 69.1651 75.2303 69.1211 75.0105 69.1211C74.7907 69.1211 74.527 69.0992 74.2193 69.0992H74.2412Z" fill="white"/>
<path fill-rule="evenodd" clip-rule="evenodd" d="M148.681 69.0992C147.977 69.0992 147.362 69.231 146.879 69.5167C146.395 69.8024 145.999 70.1321 145.736 70.5277C145.45 70.9233 145.252 71.275 145.142 71.6266L144.966 72.198V68.9893H140.549V84.286H145.076V76.0442C145.076 75.3849 145.186 74.8134 145.428 74.3299C145.648 73.8464 146.021 73.4508 146.505 73.1871C146.988 72.9233 147.626 72.7695 148.373 72.7695C148.703 72.7695 149.01 72.7695 149.318 72.8134C149.604 72.8354 149.846 72.8794 149.999 72.9453V69.209C149.846 69.1651 149.67 69.1211 149.45 69.1211C149.23 69.1211 148.966 69.0992 148.659 69.0992H148.681Z" fill="white"/>
<path fill-rule="evenodd" clip-rule="evenodd" d="M12.9011 73.6487C12.1099 73.2311 11.2308 72.9234 10.2637 72.7476L7.49451 72.1762C6.7033 72.0223 6.06593 71.7805 5.62637 71.4729C5.18681 71.1652 4.94506 70.7476 4.94506 70.2421C4.94506 69.6267 5.18681 69.1212 5.67033 68.7256C6.15385 68.33 6.85714 68.1102 7.78022 68.1102C8.41758 68.1102 8.96703 68.2201 9.40659 68.4179C9.84616 68.6157 10.1978 68.8794 10.4396 69.2091C10.6813 69.5388 10.8352 69.8904 10.9011 70.2641H15.1429C15.0989 69.2751 14.8132 68.352 14.2418 67.5168C13.6923 66.6597 12.8791 65.9784 11.8022 65.4509C10.7253 64.9234 9.40659 64.6597 7.8022 64.6597C6.32967 64.6597 5.05494 64.9014 3.93407 65.3849C2.81319 65.8685 1.95604 66.5498 1.31868 67.4289C0.681319 68.308 0.373626 69.363 0.373626 70.5937C0.373626 71.6487 0.593407 72.5278 1.01099 73.2531C1.42857 73.9784 2.02198 74.5718 2.79121 75.0113C3.53846 75.4509 4.43956 75.7805 5.45055 75.9783L8.13187 76.5718C9.05495 76.7696 9.75824 77.0113 10.2418 77.341C10.7253 77.6487 10.9451 78.0443 10.9451 78.6377C10.9451 79.0553 10.8352 79.4289 10.6154 79.7586C10.3956 80.0882 10.044 80.352 9.58242 80.5498C9.12088 80.7476 8.52747 80.8355 7.82418 80.8355C7.2967 80.8355 6.83517 80.7696 6.43956 80.6597C6.02198 80.5498 5.67033 80.374 5.38462 80.1762C5.07692 79.9564 4.85714 79.7146 4.68132 79.4509C4.5055 79.1652 4.3956 78.8794 4.37363 78.5718H0C0.021978 79.319 0.197802 80.0223 0.483517 80.7256C0.769231 81.4289 1.23077 82.0443 1.84615 82.5937C2.46154 83.1432 3.25275 83.5827 4.1978 83.8904C5.16484 84.1981 6.30769 84.374 7.64835 84.374C9.36264 84.374 10.7912 84.1102 11.956 83.5827C13.1209 83.0553 13.978 82.352 14.5714 81.4069C15.1648 80.4838 15.4725 79.4069 15.4725 78.2201C15.4725 77.0333 15.2308 76.1762 14.7692 75.4509C14.3077 74.7256 13.6703 74.1322 12.9011 73.7146V73.6487Z" fill="white"/>
<path fill-rule="evenodd" clip-rule="evenodd" d="M26.9451 77.9123C26.9451 78.4838 26.8353 78.9893 26.5935 79.4068C26.3517 79.8244 26.044 80.1321 25.6484 80.3519C25.2528 80.5717 24.8353 80.6816 24.3737 80.6816C24.0001 80.6816 23.6484 80.6156 23.2968 80.4618C22.9451 80.3079 22.6594 80.0662 22.4177 79.6706C22.1979 79.2969 22.066 78.7475 22.066 78.0442V69.0332H17.6484V79.187C17.6484 80.3739 17.8462 81.3409 18.2638 82.0881C18.6594 82.8574 19.2309 83.4068 19.9781 83.7805C20.7034 84.1541 21.5605 84.3299 22.5495 84.3299C23.4067 84.3299 24.1539 84.1761 24.7254 83.8903C25.3188 83.6046 25.7803 83.253 26.132 82.8354C26.4836 82.4178 26.7693 82.0222 26.8792 81.6266L27.055 81.1211V84.3299H31.3188V69.0332H26.9232V77.9343L26.9451 77.9123Z" fill="white"/>
<path fill-rule="evenodd" clip-rule="evenodd" d="M45.6913 69.8244C44.9001 69.2969 43.9111 69.0332 42.7683 69.0332C42.2628 69.0332 41.7793 69.0991 41.3177 69.209C40.8782 69.3189 40.4606 69.4947 40.1089 69.6925C39.7573 69.8903 39.4276 70.1761 39.1639 70.4838C38.9001 70.7914 38.6584 71.1431 38.5045 71.5387L38.3287 72.1101V69.0332H33.9551V87.231H38.3727V81.275L38.5705 81.7585C38.7902 82.286 39.1199 82.8354 39.5155 83.209C39.9111 83.5827 40.3946 83.8464 40.9441 84.0442C41.4935 84.242 42.1089 84.3299 42.7683 84.3299C43.9111 84.3299 44.8782 84.0662 45.6913 83.5387C46.5045 83.0112 47.1199 82.1321 47.5595 81.1211C47.999 80.1101 48.2188 78.9013 48.2188 77.4947V75.8464C48.2188 74.4398 47.999 73.1431 47.5814 72.1321C47.1639 71.1431 46.5485 70.3739 45.7353 69.8244H45.6913ZM43.6254 77.209C43.6254 77.9563 43.5155 78.6156 43.3177 79.1431C43.1199 79.6706 42.8122 80.0881 42.4386 80.3739C42.043 80.6596 41.5815 80.7914 41.032 80.7914C40.4826 80.7914 40.021 80.6596 39.6254 80.3739C39.2298 80.0881 38.9221 79.7145 38.7023 79.209C38.4826 78.7035 38.3727 78.1101 38.3727 77.4508V75.9783C38.3727 75.253 38.4826 74.6376 38.6804 74.1321C38.9001 73.6266 39.1858 73.231 39.5815 72.9453C39.9771 72.6596 40.4386 72.5277 40.988 72.5277C41.5375 72.5277 42.021 72.6596 42.4166 72.9453C42.8122 73.231 43.0979 73.6266 43.3177 74.1541C43.5155 74.6816 43.6254 75.3409 43.6254 76.0881V77.187V77.209Z" fill="white"/>
<path fill-rule="evenodd" clip-rule="evenodd" d="M110.835 83.4948C111.648 84.0222 112.615 84.308 113.758 84.308C114.286 84.308 114.769 84.242 115.209 84.1321C115.648 84.0222 116.066 83.8464 116.439 83.6486C116.813 83.4288 117.121 83.1651 117.385 82.8574C117.648 82.5497 117.89 82.1981 118.044 81.8025L118.242 81.231V84.3299H122.637V63.9343H118.198V72.0003L118 71.5167C117.78 70.9893 117.45 70.4398 117.055 70.0662C116.659 69.6926 116.176 69.4288 115.626 69.231C115.077 69.0332 114.461 68.9453 113.802 68.9453C112.659 68.9453 111.692 69.2091 110.879 69.7585C110.066 70.286 109.428 71.1871 109.011 72.1981C108.571 73.209 108.352 74.4178 108.352 75.8464V77.4948C108.352 78.9014 108.571 80.22 108.989 81.231C109.428 82.242 110.044 83.0112 110.835 83.5387V83.4948ZM112.901 76.0662C112.901 75.297 113.011 74.6596 113.209 74.1321C113.407 73.6047 113.714 73.1871 114.088 72.9014C114.483 72.6156 114.945 72.4618 115.494 72.4618C116.044 72.4618 116.505 72.5937 116.901 72.8794C117.297 73.1651 117.604 73.5387 117.824 74.0442C118.044 74.5497 118.154 75.1431 118.154 75.8244V77.3189C118.154 78.0442 118.044 78.6596 117.824 79.1651C117.604 79.6706 117.297 80.0662 116.901 80.3519C116.505 80.6376 116.022 80.7695 115.494 80.7695C114.967 80.7695 114.439 80.6376 114.066 80.3519C113.67 80.0662 113.363 79.6706 113.165 79.1211C112.967 78.5937 112.857 77.9343 112.857 77.1651V76.0662H112.901Z" fill="white"/>
<path fill-rule="evenodd" clip-rule="evenodd" d="M85.6931 79.9343C85.5173 80.242 85.2755 80.4838 84.9678 80.6596C84.6601 80.8354 84.2426 80.9233 83.7371 80.9233C82.9458 80.9233 82.3085 80.5937 81.8689 79.9563C81.4294 79.3189 81.2096 78.4178 81.2096 77.275V75.8903C81.2096 74.8354 81.4294 74.0002 81.8689 73.3629C82.3085 72.7475 82.9458 72.4178 83.7371 72.4178C84.2206 72.4178 84.6382 72.5277 84.9459 72.7255C85.2535 72.9233 85.5173 73.209 85.6711 73.5387C85.847 73.8684 85.9349 74.22 85.9568 74.5717H89.9349C89.9349 73.4947 89.6711 72.5497 89.1656 71.7145C88.6601 70.8794 87.9349 70.22 86.9898 69.7365C86.0448 69.253 84.9239 69.0112 83.5832 69.0112C82.2426 69.0112 80.9898 69.2969 79.9568 69.8464C78.9459 70.4178 78.1546 71.209 77.5832 72.22C77.0338 73.231 76.748 74.4398 76.748 75.8464V77.3189C76.748 78.7695 77.0118 80.0222 77.5612 81.0552C78.1107 82.0882 78.8799 82.9013 79.9129 83.4508C80.9239 84.0222 82.1546 84.286 83.5612 84.286C84.9678 84.286 86.0887 84.0442 87.0338 83.5827C87.9788 83.1211 88.7041 82.4838 89.1876 81.6486C89.6711 80.8354 89.9349 79.8904 89.9568 78.8134H85.9788C85.9349 79.231 85.847 79.6046 85.6711 79.9123L85.6931 79.9343Z" fill="white"/>
<path fill-rule="evenodd" clip-rule="evenodd" d="M102.858 69.8684C101.803 69.2969 100.572 69.0112 99.1438 69.0112C97.7152 69.0112 96.4845 69.2969 95.4295 69.8904C94.3746 70.4838 93.5614 71.2969 92.99 72.3299C92.4185 73.3849 92.1328 74.5937 92.1328 75.9563V77.231C92.1328 78.7255 92.4185 80.0002 92.99 81.0552C93.5614 82.1101 94.3746 82.9013 95.4075 83.4508C96.4625 84.0002 97.6933 84.264 99.1438 84.264C100.594 84.264 101.803 84.0002 102.858 83.4508C103.913 82.9013 104.704 82.1101 105.276 81.0552C105.847 80.0002 106.133 78.7255 106.133 77.231V75.9343C106.133 74.5277 105.847 73.3189 105.276 72.264C104.704 71.209 103.891 70.4178 102.858 69.8464V69.8684ZM101.671 77.3189C101.671 77.9343 101.583 78.5277 101.43 79.0991C101.276 79.6486 101.012 80.1101 100.638 80.4618C100.265 80.8134 99.7812 80.9893 99.1438 80.9893C98.5064 80.9893 98.0229 80.8134 97.6493 80.4618C97.2757 80.1101 97.0119 79.6486 96.8361 79.0991C96.6603 78.5277 96.5944 77.9563 96.5944 77.3409V75.9783C96.5944 75.3409 96.6823 74.7475 96.8581 74.198C97.0339 73.6486 97.2976 73.1871 97.6713 72.8354C98.0449 72.4838 98.5284 72.3079 99.1438 72.3079C99.7592 72.3079 100.243 72.4838 100.616 72.8134C100.99 73.1431 101.254 73.6046 101.43 74.1541C101.605 74.7035 101.693 75.3189 101.693 75.9563V77.3189H101.671Z" fill="white"/>
<path fill-rule="evenodd" clip-rule="evenodd" d="M60.7027 69.8464C59.6917 69.2969 58.5049 69.0112 57.1862 69.0112C55.9335 69.0112 54.7906 69.275 53.7577 69.7805C52.7247 70.286 51.9115 71.0552 51.2961 72.0882C50.6807 73.1211 50.373 74.3958 50.373 75.9343V77.3409C50.373 78.8794 50.6588 80.1541 51.2522 81.1871C51.8456 82.22 52.6588 83.0112 53.7137 83.5167C54.7687 84.0442 55.9994 84.286 57.384 84.286C58.5269 84.286 59.6038 84.1321 60.395 83.8244C61.2082 83.5167 61.8676 83.1211 62.373 82.6156C62.8785 82.1321 63.2741 81.6046 63.5159 81.0332C63.7796 80.4618 63.9115 79.9343 63.9335 79.4508H59.8895C59.8456 79.7585 59.7137 80.0222 59.4939 80.264C59.2741 80.5057 58.9884 80.6816 58.6368 80.8134C58.2851 80.9453 57.7796 81.0112 57.3401 81.0112C56.5489 81.0112 55.9115 80.7475 55.406 80.242C54.9005 79.7365 54.6368 79.0552 54.6368 78.198V77.7145H63.9115V75.9123C63.9115 74.4838 63.6258 73.231 63.0544 72.198C62.4829 71.1651 61.6917 70.3739 60.6807 69.8244L60.7027 69.8464ZM54.6588 74.9893C54.6588 74.4178 54.7687 73.9343 54.9884 73.5167C55.2082 73.0991 55.4939 72.7695 55.8895 72.5277C56.2632 72.286 56.7247 72.1761 57.2302 72.1761C57.7357 72.1761 58.1752 72.286 58.5489 72.5277C58.9225 72.7695 59.2082 73.0991 59.428 73.5167C59.6258 73.9343 59.7357 74.7035 59.7357 75.275H54.6588" fill="white"/>
<path fill-rule="evenodd" clip-rule="evenodd" d="M135.142 69.8464C134.131 69.2969 132.944 69.0112 131.626 69.0112C130.373 69.0112 129.23 69.275 128.197 69.7805C127.164 70.286 126.351 71.0552 125.736 72.0882C125.12 73.1211 124.812 74.3958 124.812 75.9343V77.3409C124.812 78.8794 125.098 80.1541 125.692 81.1871C126.285 82.22 127.098 83.0112 128.153 83.5167C129.208 84.0442 130.439 84.286 131.823 84.286C132.966 84.286 134.021 84.1321 134.834 83.8244C135.648 83.5167 136.307 83.1211 136.812 82.6156C137.318 82.1321 137.714 81.6046 137.977 81.0332C138.241 80.4618 138.373 79.9343 138.395 79.4508H134.351C134.307 79.7585 134.175 80.0222 133.955 80.264C133.736 80.5057 133.45 80.6816 133.098 80.8134C132.747 80.9453 132.241 81.0112 131.802 81.0112C131.01 81.0112 130.373 80.7475 129.867 80.242C129.362 79.7365 129.098 79.0552 129.098 78.198V77.7145H138.373V75.9123C138.373 74.4838 138.087 73.231 137.516 72.198C136.944 71.1651 136.153 70.3739 135.142 69.8244V69.8464ZM129.098 74.9893C129.098 74.4178 129.208 73.9343 129.428 73.5167C129.648 73.0991 129.933 72.7695 130.329 72.5277C130.703 72.286 131.164 72.1761 131.67 72.1761C132.175 72.1761 132.615 72.286 132.988 72.5277C133.362 72.7695 133.648 73.0991 133.867 73.5167C134.065 73.9343 134.175 74.7035 134.175 75.275H129.098" fill="white"/>
</g>
<defs>
<clipPath id="clip0_5813_19582">
<rect width="150" height="87.2308" fill="white" transform="translate(0 0.000244141)"/>
</clipPath>
</defs>
</svg>
